<svg width="1440" height="500" viewBox="0 0 1440 500" fill="none" xmlns="http://www.w3.org/2000/svg">
  <path fill-rule="evenodd" clip-rule="evenodd" d="M-445 595.007C-445 572.147 -430.857 551.67 -409.477 543.576L-364.542 526.566C-284.083 496.108 -123.167 435.193 37.75 342.217C198.667 249.241 359.583 127.41 520.5 157.868C681.417 188.325 842.333 372.675 1003.25 358.247C1164.17 342.217 1325.08 127.41 1405.54 18.4035C1431.3 -15.9798 1486 2.23674 1486 45.1978V592C1486 624.033 1460.03 650 1428 650H1405.54C1325.08 650 1164.17 650 1003.25 650C842.333 650 681.417 650 520.5 650C359.583 650 198.667 650 37.75 650C-123.167 650 -284.083 650 -364.542 650H-390.007C-420.379 650 -445 625.379 -445 595.007Z" fill="#29B95F"/>
</svg>

