<svg width="1440" height="500" viewBox="0 0 1440 500" fill="none" xmlns="http://www.w3.org/2000/svg">
  <path fill-rule="evenodd" clip-rule="evenodd" d="M1941 588.854C1941 569.703 1929.13 552.555 1911.21 545.806L1860.12 526.566C1779.25 496.108 1617.5 435.193 1455.75 342.217C1294 249.241 1132.25 127.41 970.5 157.868C808.75 188.325 647 372.675 485.25 358.247C323.5 342.217 161.75 127.41 80.875 18.4035C54.9111 -16.077 -1.91331e-05 2.28519 -1.91331e-05 45.448L-1.91331e-05 604C-1.91331e-05 629.405 20.5948 650 46 650H80.875C161.75 650 323.5 650 485.25 650C647 650 808.75 650 970.5 650C1132.25 650 1294 650 1455.75 650C1617.5 650 1779.25 650 1860.12 650H1895C1920.4 650 1941 629.405 1941 604L1941 588.854Z" fill="#29B95F"/>
</svg>
