<svg xmlns="http://www.w3.org/2000/svg" width="36" height="36" viewBox="0 0 36 36" fill="none">
  <path d="M9.75 16.5L18 3L26.25 16.5H9.75ZM26.25 33C24.375 33 22.7815 32.344 21.4695 31.032C20.1575 29.72 19.501 28.126 19.5 26.25C19.499 24.374 20.1555 22.7805 21.4695 21.4695C22.7835 20.1585 24.377 19.502 26.25 19.5C28.123 19.498 29.717 20.1545 31.032 21.4695C32.347 22.7845 33.003 24.378 33 26.25C32.997 28.122 32.341 29.716 31.032 31.032C29.723 32.348 28.129 33.004 26.25 33ZM4.5 32.25V20.25H16.5V32.25H4.5ZM26.25 30C27.3 30 28.1875 29.6375 28.9125 28.9125C29.6375 28.1875 30 27.3 30 26.25C30 25.2 29.6375 24.3125 28.9125 23.5875C28.1875 22.8625 27.3 22.5 26.25 22.5C25.2 22.5 24.3125 22.8625 23.5875 23.5875C22.8625 24.3125 22.5 25.2 22.5 26.25C22.5 27.3 22.8625 28.1875 23.5875 28.9125C24.3125 29.6375 25.2 30 26.25 30ZM7.5 29.25H13.5V23.25H7.5V29.25ZM15.075 13.5H20.925L18 8.775L15.075 13.5Z" fill="#29B95F"/>
</svg>