<svg xmlns="http://www.w3.org/2000/svg" width="36" height="36" viewBox="0 0 36 36" fill="none">
  <path d="M22.5 31.5V25.5C22.5 24.7044 22.8161 23.9413 23.3787 23.3787C23.9413 22.8161 24.7044 22.5 25.5 22.5H31.5" stroke="#29B95F" stroke-width="2" stroke-linecap="round" stroke-linejoin="round"/>
  <path d="M10.5 6V9C10.8236 9.92021 11.4374 10.7104 12.249 11.2514C13.0607 11.7925 14.0261 12.0552 15 12C15.7956 12 16.5587 12.3161 17.1213 12.8787C17.6839 13.4413 18 14.2044 18 15C18 15.7956 18.3161 16.5587 18.8787 17.1213C19.4413 17.6839 20.2044 18 21 18C21.7956 18 22.5587 17.6839 23.1213 17.1213C23.6839 16.5587 24 15.7956 24 15C24 14.2044 24.3161 13.4413 24.8787 12.8787C25.4413 12.3161 26.2044 12 27 12H31.5" stroke="#29B95F" stroke-width="2" stroke-linecap="round" stroke-linejoin="round"/>
  <path d="M4.5 16.5H7.5C8.29565 16.5 9.05871 16.8161 9.62132 17.3787C10.1839 17.9413 10.5 18.7044 10.5 19.5V21C10.5 21.7956 10.8161 22.5587 11.3787 23.1213C11.9413 23.6839 12.7044 24 13.5 24C14.2956 24 15.0587 24.3161 15.6213 24.8787C16.1839 25.4413 16.5 26.2044 16.5 27V33" stroke="#29B95F" stroke-width="2" stroke-linecap="round" stroke-linejoin="round"/>
  <path d="M18 33C26.2843 33 33 26.2843 33 18C33 9.71573 26.2843 3 18 3C9.71573 3 3 9.71573 3 18C3 26.2843 9.71573 33 18 33Z" stroke="#29B95F" stroke-width="2" stroke-linecap="round" stroke-linejoin="round"/>
</svg>