<svg xmlns="http://www.w3.org/2000/svg" width="37" height="36" viewBox="0 0 37 36" fill="none">
  <path d="M25.6168 24.7501C27.0864 23.7181 28.3136 22.3784 29.2131 20.8242C30.1126 19.27 30.6628 17.5385 30.8255 15.7501H6.1745C6.33715 17.5385 6.88736 19.27 7.78688 20.8242C8.68639 22.3784 9.91362 23.7181 11.3833 24.7501H25.6168ZM10.625 26.9506C8.55474 25.6289 6.85101 23.8067 5.67123 21.6525C4.49144 19.4982 3.87367 17.0813 3.875 14.6251C3.875 14.3267 3.99353 14.0406 4.20451 13.8296C4.41549 13.6186 4.70163 13.5001 5 13.5001H32C32.2984 13.5001 32.5845 13.6186 32.7955 13.8296C33.0065 14.0406 33.125 14.3267 33.125 14.6251C33.1263 17.0813 32.5086 19.4982 31.3288 21.6525C30.149 23.8067 28.4453 25.6289 26.375 26.9506V29.2501C26.375 29.8468 26.1379 30.4191 25.716 30.8411C25.294 31.263 24.7217 31.5001 24.125 31.5001H12.875C12.2783 31.5001 11.706 31.263 11.284 30.8411C10.8621 30.4191 10.625 29.8468 10.625 29.2501V26.9506ZM17.8407 11.2501H14.6593L23.603 2.30634C23.7068 2.19889 23.8309 2.11319 23.9682 2.05423C24.1054 1.99527 24.253 1.96423 24.4024 1.96293C24.5518 1.96164 24.6999 1.9901 24.8382 2.04667C24.9765 2.10323 25.1021 2.18677 25.2077 2.2924C25.3133 2.39802 25.3969 2.52363 25.4534 2.66189C25.51 2.80015 25.5385 2.94829 25.5372 3.09767C25.5359 3.24704 25.5048 3.39467 25.4459 3.53192C25.3869 3.66917 25.3012 3.79331 25.1938 3.89709L17.8407 11.2501ZM24.4265 11.2501H19.9265L29.408 5.77584C29.6663 5.62901 29.9721 5.59029 30.2588 5.66812C30.5455 5.74596 30.7898 5.93404 30.9383 6.19131C31.0868 6.44858 31.1276 6.75417 31.0517 7.04137C30.9757 7.32858 30.7893 7.5741 30.533 7.72434L24.4265 11.2501ZM12.875 27.0001V29.2501H24.125V27.0001H12.875Z" fill="#29B95F"/>
</svg>