<svg width="26" height="34" viewBox="0 0 26 34" fill="none" xmlns="http://www.w3.org/2000/svg">
  <g filter="url(#filter0_f_1118_1747)">
    <ellipse cx="12" cy="29" rx="4" ry="2" fill="black" fill-opacity="0.12"/>
  </g>
  <mask id="path-2-outside-1_1118_1747" maskUnits="userSpaceOnUse" x="1.16669" y="1.125" width="24" height="30" fill="black">
    <rect fill="white" x="1.16669" y="1.125" width="24" height="30"/>
    <path fill-rule="evenodd" clip-rule="evenodd" d="M19.4089 21.3172C22.092 19.3833 23.8334 16.2661 23.8334 12.75C23.8334 6.88197 18.9831 2.125 13 2.125C7.01694 2.125 2.16669 6.88197 2.16669 12.75C2.16669 16.266 3.90804 19.3832 6.59105 21.3171C8.62748 22.8221 11.497 25.1952 12.1621 29.0133C12.2341 29.4264 12.5807 29.7468 13 29.7468C13.4193 29.7468 13.7659 29.4264 13.8379 29.0133C14.503 25.1953 17.3725 22.8222 19.4089 21.3172Z"/>
  </mask>
  <path fill-rule="evenodd" clip-rule="evenodd" d="M19.4089 21.3172C22.092 19.3833 23.8334 16.2661 23.8334 12.75C23.8334 6.88197 18.9831 2.125 13 2.125C7.01694 2.125 2.16669 6.88197 2.16669 12.75C2.16669 16.266 3.90804 19.3832 6.59105 21.3171C8.62748 22.8221 11.497 25.1952 12.1621 29.0133C12.2341 29.4264 12.5807 29.7468 13 29.7468C13.4193 29.7468 13.7659 29.4264 13.8379 29.0133C14.503 25.1953 17.3725 22.8222 19.4089 21.3172Z" fill="#DC2626"/>
  <path d="M19.4089 21.3172L18.8241 20.5059L18.8146 20.513L19.4089 21.3172ZM6.59105 21.3171L7.18543 20.5128L7.17578 20.5059L6.59105 21.3171ZM12.1621 29.0133L13.1473 28.8417L13.1473 28.8417L12.1621 29.0133ZM13.8379 29.0133L12.8527 28.8417L12.8527 28.8417L13.8379 29.0133ZM19.9936 22.1284C22.9222 20.0176 24.8334 16.6059 24.8334 12.75H22.8334C22.8334 15.9262 21.2618 18.749 18.8242 20.506L19.9936 22.1284ZM24.8334 12.75C24.8334 6.31147 19.517 1.125 13 1.125V3.125C18.4492 3.125 22.8334 7.45248 22.8334 12.75H24.8334ZM13 1.125C6.48305 1.125 1.16669 6.31147 1.16669 12.75H3.16669C3.16669 7.45248 7.55083 3.125 13 3.125V1.125ZM1.16669 12.75C1.16669 16.6059 3.07784 20.0175 6.00631 22.1283L7.17578 20.5059C4.73823 18.7489 3.16669 15.9262 3.16669 12.75H1.16669ZM13.1473 28.8417C12.409 24.6036 9.2326 22.0258 7.18538 20.5129L5.99671 22.1213C8.02235 23.6183 10.585 25.7868 11.177 29.1849L13.1473 28.8417ZM13 28.7468C13.0521 28.7468 13.0934 28.7681 13.1155 28.7878C13.1354 28.8055 13.1443 28.8246 13.1473 28.8417L11.177 29.1849C11.3239 30.0281 12.0468 30.7468 13 30.7468V28.7468ZM12.8527 28.8417C12.8557 28.8246 12.8647 28.8055 12.8845 28.7878C12.9067 28.7681 12.9479 28.7468 13 28.7468V30.7468C13.9532 30.7468 14.6762 30.0281 14.8231 29.1849L12.8527 28.8417ZM18.8146 20.513C16.7673 22.0259 13.591 24.6037 12.8527 28.8417L14.8231 29.1849C15.415 25.7868 17.9776 23.6184 20.0032 22.1214L18.8146 20.513Z" fill="url(#paint0_linear_1118_1747)" mask="url(#path-2-outside-1_1118_1747)"/>
  <ellipse cx="13" cy="12.75" rx="4.33333" ry="4.25" fill="black" fill-opacity="0.4"/>
  <defs>
    <filter id="filter0_f_1118_1747" x="6" y="25" width="12" height="8" filterUnits="userSpaceOnUse" color-interpolation-filters="sRGB">
      <feFlood flood-opacity="0" result="BackgroundImageFix"/>
      <feBlend mode="normal" in="SourceGraphic" in2="BackgroundImageFix" result="shape"/>
      <feGaussianBlur stdDeviation="1" result="effect1_foregroundBlur_1118_1747"/>
    </filter>
    <linearGradient id="paint0_linear_1118_1747" x1="13" y1="2.125" x2="13" y2="29.7468" gradientUnits="userSpaceOnUse">
      <stop stop-color="white"/>
      <stop offset="1" stop-color="white" stop-opacity="0.35"/>
    </linearGradient>
  </defs>
</svg>
