<svg xmlns="http://www.w3.org/2000/svg" width="32" height="29" viewBox="0 0 32 29" fill="none">
  <path d="M5.6725 19.1469V23.4601C6.99009 25.0759 8.6511 26.3777 10.5348 27.2711C12.4185 28.1645 14.4777 28.627 16.5625 28.625C21.427 28.625 25.7155 26.1545 28.24 22.4004V16.3546C27.376 22.028 22.4766 26.375 16.5625 26.375C11.6643 26.375 7.46238 23.3938 5.6725 19.1469ZM26.1588 7.67302V5.73577C26.1554 5.30851 26.2254 4.88384 26.3658 4.48027C23.7435 1.92375 20.2248 0.4951 16.5625 0.500015C13.2852 0.495151 10.11 1.63968 7.5895 3.73439L7.59513 3.80302L7.59625 3.83339V6.87089C8.70415 5.5768 10.0794 4.53827 11.6273 3.82686C13.1752 3.11545 14.8589 2.74806 16.5625 2.75002C20.5158 2.75002 24.0145 4.69177 26.1588 7.67302Z" fill="#29B95F"/>
  <path d="M25.5625 14.5617C25.5625 16.9486 24.6143 19.2378 22.9265 20.9256C21.2386 22.6135 18.9494 23.5617 16.5625 23.5617C14.1756 23.5617 11.8864 22.6135 10.1985 20.9256C8.51071 19.2378 7.5625 16.9486 7.5625 14.5617C7.5625 12.1747 8.51071 9.88554 10.1985 8.19771C11.8864 6.50988 14.1756 5.56167 16.5625 5.56167C18.9494 5.56167 21.2386 6.50988 22.9265 8.19771C24.6143 9.88554 25.5625 12.1747 25.5625 14.5617ZM16.5625 22.4367C17.5967 22.4367 18.6207 22.233 19.5761 21.8372C20.5316 21.4415 21.3997 20.8614 22.131 20.1301C22.8622 19.3989 23.4423 18.5307 23.8381 17.5753C24.2338 16.6199 24.4375 15.5958 24.4375 14.5617C24.4375 13.5275 24.2338 12.5035 23.8381 11.548C23.4423 10.5926 22.8622 9.72447 22.131 8.99321C21.3997 8.26195 20.5316 7.68188 19.5761 7.28612C18.6207 6.89036 17.5967 6.68667 16.5625 6.68667C14.4739 6.68667 12.4709 7.51636 10.994 8.99321C9.51719 10.4701 8.6875 12.4731 8.6875 14.5617C8.6875 16.6503 9.51719 18.6533 10.994 20.1301C12.4709 21.607 14.4739 22.4367 16.5625 22.4367ZM31.7388 4.93167C31.7388 3.91917 30.9175 3.09792 29.905 3.09792C28.4425 3.09792 27.2725 4.27917 27.2838 5.73042V11.9742C27.2838 13.3838 28.1005 14.646 29.365 15.2175V24.9117C29.365 25.4967 29.8375 25.9692 30.4225 25.9692H30.6812C31.2662 25.9692 31.7388 25.4967 31.7388 24.9117V4.93167ZM5.6725 3.09792C5.46961 3.09792 5.27503 3.17852 5.13156 3.32198C4.9881 3.46545 4.9075 3.66003 4.9075 3.86292V6.88917C4.9075 7.11417 4.7275 7.28292 4.51375 7.28292C4.28875 7.28292 4.12 7.10292 4.12 6.88917V3.89667C4.12 3.48042 3.79375 3.10917 3.3775 3.09792C2.93875 3.08667 2.57875 3.43542 2.57875 3.86292V6.88917C2.57875 7.11417 2.39875 7.28292 2.185 7.28292C1.96 7.28292 1.79125 7.10292 1.79125 6.88917V3.89667C1.79125 3.48042 1.465 3.10917 1.04875 3.09792C0.61 3.08667 0.25 3.43542 0.25 3.86292V9.01542C0.25 10.0302 0.741625 10.9358 1.49762 11.5005C2.17375 11.8819 2.17375 13.6279 2.17375 13.6279V24.9004C2.17375 25.4854 2.64625 25.9579 3.23125 25.9579H3.49C4.075 25.9579 4.5475 25.4854 4.5475 24.9004V13.6279C4.5475 13.6279 4.5475 11.9505 5.22363 11.5005C5.61064 11.212 5.92495 10.8371 6.14154 10.4056C6.35814 9.9742 6.47103 9.49817 6.47125 9.01542V3.86292C6.45986 3.65792 6.37104 3.46489 6.22276 3.32288C6.07448 3.18086 5.8778 3.10046 5.6725 3.09792Z" fill="#29B95F"/>
</svg>