<svg width="336" height="251" viewBox="0 0 336 251" fill="none" xmlns="http://www.w3.org/2000/svg">
  <circle cx="328" cy="218.91" r="8" fill="#FF7B29"/>
  <circle cx="276.364" cy="206.545" r="4.36364" fill="#FF7B29"/>
  <circle cx="256" cy="197.817" r="2.90909" fill="#FF7B29"/>
  <circle cx="281.455" cy="147.636" r="3.63636" fill="#FF7B29"/>
  <circle cx="288" cy="183.272" r="2.90909" fill="#FF7B29"/>
  <circle cx="314.182" cy="100.364" r="2.90909" fill="#FF7B29"/>
  <circle cx="264.727" cy="66.9091" r="2.90909" fill="#FF7B29"/>
  <circle cx="178.909" cy="42.182" r="4.36364" fill="#FF7B29"/>
  <circle cx="170.182" cy="4.36364" r="4.36364" fill="#FF7B29"/>
  <circle cx="197.091" cy="18.1813" r="3.63636" fill="#FF7B29"/>
  <circle cx="273.454" cy="39.2724" r="2.90909" fill="#FF7B29"/>
  <circle cx="314.909" cy="117.09" r="2.18182" fill="#FF7B29"/>
  <circle cx="249.454" cy="89.4533" r="2.18182" fill="#FF7B29"/>
  <circle cx="130.182" cy="63.2731" r="3.63636" fill="#FF7B29"/>
  <circle cx="65.4545" cy="62.5472" r="4.36364" fill="#FF7B29"/>
  <circle cx="8.72727" cy="110.546" r="8.72727" fill="#FF7B29"/>
  <circle cx="98.9091" cy="49.454" r="2.90909" fill="#FF7B29"/>
  <circle cx="37.8183" cy="18.911" r="2.90909" fill="#FF7B29"/>
  <circle cx="49.4545" cy="144.001" r="2.90909" fill="#FF7B29"/>
  <circle cx="85.8183" cy="203.636" r="2.90909" fill="#FF7B29"/>
  <circle cx="46.5458" cy="245.817" r="4.36364" fill="#FF7B29"/>
  <circle cx="55.2729" cy="187.636" r="1.45455" fill="#FF7B29"/>
  <circle cx="129.454" cy="247.274" r="2.90909" fill="#FF7B29"/>
  <circle cx="195.636" cy="63.2736" r="2.18182" fill="#FF7B29"/>
  <circle cx="240.727" cy="234.908" r="2.18182" fill="#FF7B29"/>
  <path d="M172 87C144.385 87 122 109.385 122 137C122 164.615 144.385 187 172 187C199.615 187 222 164.615 222 137C222 109.385 199.615 87 172 87ZM162 164.07L138.465 140.535L145.535 133.465L162 149.93L198.465 113.465L205.535 120.535L162 164.07Z" fill="#FF7B29"/>
</svg>
