<svg xmlns="http://www.w3.org/2000/svg" width="36" height="36" viewBox="0 0 36 36" fill="none">
  <path d="M18 3C26.2845 3 33 9.7155 33 18C33 26.2845 26.2845 33 18 33C9.7155 33 3 26.2845 3 18C3 9.7155 9.7155 3 18 3ZM18 6C14.8174 6 11.7652 7.26428 9.51472 9.51472C7.26428 11.7652 6 14.8174 6 18C6 21.1826 7.26428 24.2348 9.51472 26.4853C11.7652 28.7357 14.8174 30 18 30C21.1826 30 24.2348 28.7357 26.4853 26.4853C28.7357 24.2348 30 21.1826 30 18C30 14.8174 28.7357 11.7652 26.4853 9.51472C24.2348 7.26428 21.1826 6 18 6ZM18 9C18.3674 9.00005 18.722 9.13493 18.9966 9.37907C19.2711 9.62321 19.4465 9.95962 19.4895 10.3245L19.5 10.5V17.379L23.5605 21.4395C23.8295 21.7094 23.9857 22.0717 23.9973 22.4526C24.009 22.8335 23.8752 23.2046 23.6231 23.4904C23.3711 23.7763 23.0197 23.9555 22.6403 23.9916C22.2609 24.0277 21.882 23.9181 21.5805 23.685L21.4395 23.5605L16.9395 19.0605C16.7064 18.8272 16.5566 18.5235 16.5135 18.1965L16.5 18V10.5C16.5 10.1022 16.658 9.72064 16.9393 9.43934C17.2206 9.15804 17.6022 9 18 9Z" fill="#29B95F"/>
</svg>